<?xml version="1.0"?>
<svg xmlns="http://www.w3.org/2000/svg" xmlns:xlink="http://www.w3.org/1999/xlink" version="1.1" id="Capa_1" x="0px" y="0px" viewBox="0 0 372.381 372.381" style="enable-background:new 0 0 372.381 372.381;" xml:space="preserve" width="512px" height="512px" class=""><g><g>
	<path d="M58.668,319.303V32.991c0-8.691,7.049-15.741,15.74-15.741h150.957v57.092c0,3.387,2.743,6.129,6.121,6.129h57.182v165.236   H293c4.502,0,8.841,0.706,12.918,2.003V80.376c0-4.574-1.817-8.962-5.052-12.196l-63.12-63.127C234.511,1.817,230.123,0,225.548,0   H74.408c-18.191,0-32.99,14.8-32.99,32.991v286.311c0,18.192,14.799,32.992,32.99,32.992h160.4v-17.25h-160.4   C65.717,335.045,58.668,327.995,58.668,319.303z" data-original="#000000" class="active-path" data-old_color="#ffffff" fill="#ffffff"/>
	<path d="M194.668,61.104H86.002c-4.971,0-9,4.029-9,9s4.029,9,9,9h108.666c4.971,0,9-4.029,9-9S199.639,61.104,194.668,61.104z" data-original="#000000" class="active-path" data-old_color="#ffffff" fill="#ffffff"/>
	<path d="M194.668,111.104H86.002c-4.971,0-9,4.029-9,9s4.029,9,9,9h108.666c4.971,0,9-4.029,9-9S199.639,111.104,194.668,111.104z" data-original="#000000" class="active-path" data-old_color="#ffffff" fill="#ffffff"/>
	<path d="M253.668,170.105c0-4.971-4.029-9-9-9H86.002c-4.971,0-9,4.029-9,9c0,4.971,4.029,9,9,9h158.666   C249.639,179.105,253.668,175.075,253.668,170.105z" data-original="#000000" class="active-path" data-old_color="#ffffff" fill="#ffffff"/>
	<path d="M229.668,211.105H86.002c-4.971,0-9,4.029-9,9c0,4.971,4.029,9,9,9h143.666c4.971,0,9-4.029,9-9   C238.668,215.134,234.639,211.105,229.668,211.105z" data-original="#000000" class="active-path" data-old_color="#ffffff" fill="#ffffff"/>
	<path d="M194.668,279.104c4.971,0,9-4.029,9-9s-4.029-9-9-9H86.002c-4.971,0-9,4.029-9,9s4.029,9,9,9H194.668z" data-original="#000000" class="active-path" data-old_color="#ffffff" fill="#ffffff"/>
	<path d="M324.754,304.642h-3.068v-16.249c0-15.267-12.419-27.686-27.685-27.686h-6.228c-15.267,0-27.686,12.42-27.686,27.686   v16.249h-3.068c-3.43,0-6.209,2.779-6.209,6.208v55.322c0,3.429,2.779,6.208,6.209,6.208h67.736c3.43,0,6.209-2.779,6.209-6.208   v-55.322C330.963,307.422,328.184,304.642,324.754,304.642z M295.148,350.797v4.95c0,2.354-1.908,4.263-4.263,4.263   c-2.355,0-4.263-1.909-4.263-4.263v-4.95c-1.744-1.302-2.877-3.375-2.877-5.718c0-3.942,3.196-7.14,7.14-7.14   c3.944,0,7.141,3.197,7.141,7.14C298.026,347.422,296.892,349.495,295.148,350.797z M303.682,304.642h-25.591v-16.249   c0-5.339,4.343-9.682,9.682-9.682H294c5.338,0,9.682,4.343,9.682,9.682V304.642z" data-original="#000000" class="active-path" data-old_color="#ffffff" fill="#ffffff"/>
</g></g> </svg>
