<svg xmlns="http://www.w3.org/2000/svg" viewBox="0 0 181.4 48.756"><defs><style>.a,.b{fill:#fff;}.b{font-size:16px;font-family:Roboto-Bold, Roboto;font-weight:700;}</style></defs><g transform="translate(-408.964 -29.681)"><g transform="translate(408.964 -105.515)"><g transform="translate(0 135.515)"><path class="a" d="M64,136.945a1.227,1.227,0,0,0-.879-.956,23.522,23.522,0,0,0-16.989,2.986,31.419,31.419,0,0,0-7.471,6.347H27.589a31.417,31.417,0,0,0-7.471-6.347,23.528,23.528,0,0,0-16.989-2.986,1.227,1.227,0,0,0-.879.956,75.611,75.611,0,0,0,0,36.62,1.229,1.229,0,0,0,.873.954,23.707,23.707,0,0,0,4.849.5A23.38,23.38,0,0,0,20.259,171.5a31.187,31.187,0,0,0,7.333-6.315h11.5a1.281,1.281,0,0,0,1.106-1.4v-3.994a26.531,26.531,0,0,0,4.146,1.167,25.664,25.664,0,0,0,3.213.415l.058,0a1.263,1.263,0,0,0,1.1-1.331,1.319,1.319,0,0,0-1.048-1.472,23.9,23.9,0,0,1-2.991-.386,24.81,24.81,0,0,1-4.481-1.326v-4.172a24.132,24.132,0,0,1,4.453-1.34,20.882,20.882,0,0,1,5.452-.159c.607.062,1.143-.513,1.192-1.285a1.341,1.341,0,0,0-1.014-1.511,22.614,22.614,0,0,0-5.91.172,23.491,23.491,0,0,0-4.173,1.2v-2.418a29.125,29.125,0,0,1,6.88-5.831A21.726,21.726,0,0,1,62.1,138.634a71.216,71.216,0,0,1,1.939,16.379,71.254,71.254,0,0,1-1.94,16.869c-7.117,1.043-12.4-1.259-18.207-4.79a1.017,1.017,0,0,0-1.476.658,1.586,1.586,0,0,0,.519,1.871c4.43,2.693,7.424,4.987,15.344,5.4a18.506,18.506,0,0,0,4.849-.5,1.229,1.229,0,0,0,.873-.954A74.585,74.585,0,0,0,66.251,155,74.531,74.531,0,0,0,64,136.945ZM26.055,149.762a23.483,23.483,0,0,0-4.173-1.2,22.627,22.627,0,0,0-5.91-.172,1.341,1.341,0,0,0-1.014,1.511c.049.772.583,1.349,1.192,1.285a20.9,20.9,0,0,1,5.452.159,24.1,24.1,0,0,1,4.453,1.34v4.172a24.813,24.813,0,0,1-4.48,1.326,23.849,23.849,0,0,1-2.991.386,1.319,1.319,0,0,0-1.048,1.472,1.263,1.263,0,0,0,1.1,1.331l.058,0a25.6,25.6,0,0,0,3.213-.415,26.524,26.524,0,0,0,4.146-1.167v3.38a28.879,28.879,0,0,1-6.752,5.8,21.474,21.474,0,0,1-15.15,2.908,72.2,72.2,0,0,1,0-33.249,21.729,21.729,0,0,1,15.023,2.879,29.12,29.12,0,0,1,6.88,5.831v2.418Zm11.929,1.888v10.733H28.267V148.127h9.716Z" transform="translate(0 -135.515)"/></g></g><text class="b" transform="matrix(1, -0.017, 0.017, 1, 488.559, 31.444)"><tspan x="0" y="15">HandMade</tspan><tspan x="0" y="34">BowTie</tspan></text></g></svg>